<svg width="22" height="22" viewBox="0 0 22 22" fill="none" xmlns="http://www.w3.org/2000/svg">
<rect x="5" y="5" width="12" height="12" fill="white"/>
<path fill-rule="evenodd" clip-rule="evenodd" d="M10.9999 0.617464L20.5332 6.17906V15.8209L10.9999 21.384L1.46655 15.8209V6.17906L10.9999 0.615997V0.617464ZM10.9999 5.86666C9.63844 5.86666 8.33276 6.4075 7.37007 7.37018C6.40738 8.33287 5.86655 9.63855 5.86655 11C5.86655 12.3614 6.40738 13.6671 7.37007 14.6298C8.33276 15.5925 9.63844 16.1333 10.9999 16.1333H11.2668C12.6983 16.1333 14.0726 15.5643 15.086 14.5523L15.1858 14.4525L14.1474 13.4141L14.0476 13.5139C13.3102 14.2516 12.3099 14.6663 11.2668 14.6667H10.9999C10.0274 14.6667 9.09479 14.2804 8.40716 13.5927C7.71953 12.9051 7.33322 11.9725 7.33322 11C7.33322 10.0275 7.71953 9.09491 8.40716 8.40727C9.09479 7.71964 10.0274 7.33333 10.9999 7.33333H11.2668C12.3096 7.33333 13.3099 7.7484 14.0476 8.48613L14.1474 8.58586L15.1858 7.54746L15.086 7.44773C14.5844 6.94631 13.989 6.5486 13.3337 6.27732C12.6784 6.00604 11.9761 5.8665 11.2668 5.86666H10.9999Z" fill="#283593"/>
</svg>
