<svg width="16" height="18" viewBox="0 0 16 18" fill="none" xmlns="http://www.w3.org/2000/svg">
<path d="M15.9684 5.27824C15.9683 4.97637 15.9038 4.70962 15.7733 4.48074C15.6451 4.25556 15.4531 4.06687 15.1956 3.91768C13.0701 2.69149 10.9425 1.46906 8.81773 0.241618C8.24489 -0.0892567 7.68948 -0.0771317 7.12089 0.258493C6.27488 0.757618 2.03918 3.18556 0.777002 3.91699C0.257199 4.21812 0.00426345 4.67887 0.00413851 5.27768C0.00332642 7.74362 0.00413851 10.2096 0.00332642 12.6755C0.00332642 12.9707 0.065233 13.2324 0.189983 13.4578C0.318231 13.6897 0.512884 13.8836 0.776315 14.0362C2.03856 14.7676 6.27482 17.1954 7.12064 17.6947C7.68948 18.0305 8.24489 18.0425 8.81792 17.7116C10.9428 16.4841 13.0705 15.2616 15.1963 14.0354C15.4597 13.8829 15.6544 13.6889 15.7826 13.4572C15.9072 13.2317 15.9692 12.9701 15.9692 12.6748C15.9692 12.6748 15.9692 7.74424 15.9684 5.27824Z" fill="#283593"/>
<path d="M8.01136 8.95256L0.190643 13.4578C0.318892 13.6897 0.513544 13.8836 0.776975 14.0362C2.03922 14.7676 6.27548 17.1954 7.1213 17.6947C7.69014 18.0305 8.24555 18.0425 8.81858 17.7116C10.9435 16.4841 13.0711 15.2616 15.197 14.0354C15.4604 13.8829 15.655 13.6889 15.7833 13.4572L8.01136 8.95256" fill="#283593"/>
<path d="M15.9691 5.27824C15.969 4.97637 15.9044 4.70962 15.7739 4.48074L8.01138 8.95262L15.7833 13.4572C15.9079 13.2317 15.9698 12.9701 15.9699 12.6748C15.9699 12.6748 15.9699 7.74424 15.9691 5.27824" fill="#283593"/>
<path d="M8.02856 3.03912C10.224 3.03912 12.1407 4.232 13.1674 6.00512L13.1574 5.98806L10.5743 7.47606C10.0654 6.614 9.13251 6.03219 8.06223 6.02019L8.0285 6.02C6.3965 6.02 5.07341 7.34375 5.07341 8.97656C5.07288 9.49121 5.20726 9.99699 5.46315 10.4434C5.97252 11.3331 6.93011 11.9332 8.02856 11.9332C9.13382 11.9332 10.0968 11.3255 10.6036 10.4263L10.5913 10.4479L13.1704 11.9427C12.155 13.7009 10.2645 14.8901 8.09465 14.9137L8.02856 14.9141C5.82622 14.9141 3.90406 13.7139 2.87995 11.9314C2.38001 11.0612 2.09396 10.0524 2.09396 8.97656C2.09396 5.69744 4.75088 3.03906 8.0285 3.03906L8.02856 3.03912Z" fill="white"/>
</svg>
