<svg width="18" height="22" viewBox="0 0 18 22" fill="none" xmlns="http://www.w3.org/2000/svg">
<g clip-path="url(#clip0)">
<path d="M10.606 11.6194C10.2415 11.6245 10.6749 11.8072 11.1506 11.8804C11.2745 11.7837 11.3936 11.6811 11.5075 11.573C11.2113 11.6456 10.9097 11.6472 10.606 11.6195" fill="white"/>
<path d="M12.5618 11.1319C12.7788 10.8324 12.9369 10.5045 12.9927 10.1654C12.944 10.4071 12.8128 10.6158 12.6893 10.836C12.0082 11.2649 12.6253 10.5813 12.6889 10.3215C11.9565 11.2435 12.5883 10.8744 12.5618 11.1319" fill="white"/>
<path d="M13.2838 9.25318C13.3279 8.597 13.1547 8.80444 13.0964 9.0549C13.1644 9.09016 13.2182 9.51746 13.2838 9.25325" fill="white"/>
<path d="M9.22412 0.283707C9.41858 0.318615 9.64427 0.345334 9.61263 0.391763C9.82541 0.345126 9.87364 0.302167 9.22412 0.283707Z" fill="white"/>
<path d="M9.61251 0.391769L9.4751 0.420224L9.603 0.408842L9.61251 0.391769Z" fill="white"/>
<path d="M15.6769 9.50206C15.6986 10.0914 15.5045 10.3773 15.3295 10.8835L15.0146 11.0409C14.7568 11.5413 15.0395 11.3587 14.8549 11.7567C14.4526 12.1144 13.634 12.8762 13.372 12.9457C13.1807 12.9414 13.5016 12.72 13.5435 12.6332C13.0049 13.0031 13.1114 13.1884 12.2876 13.4131L12.2635 13.3596C10.2319 14.3153 7.40984 12.4213 7.44697 9.83685C7.42525 10.0009 7.38527 9.95996 7.3403 10.0263C7.23544 8.69659 7.95436 7.36098 9.16686 6.8157C10.3528 6.22857 11.7431 6.46953 12.5926 7.26125C12.126 6.64997 11.1972 6.00204 10.0964 6.0627C9.0182 6.0797 8.00953 6.76503 7.67287 7.5088C7.12044 7.85664 7.05638 8.84948 6.81563 9.03117C6.49181 11.4113 7.42483 12.4397 9.00314 13.6494C9.2516 13.8169 9.07317 13.8423 9.10683 13.9698C8.58237 13.7242 8.10218 13.3535 7.70736 12.8996C7.91681 13.2063 8.14292 13.5044 8.43517 13.7386C7.94076 13.5711 7.28027 12.5405 7.08741 12.4986C7.93972 14.0245 10.5454 15.1748 11.9098 14.6042C11.2785 14.6274 10.4764 14.6171 9.7671 14.3549C9.46917 14.2016 9.06408 13.884 9.13639 13.8246C10.9984 14.5202 12.9219 14.3514 14.5331 13.0598C14.943 12.7406 15.3908 12.1976 15.5201 12.1901C15.3253 12.4831 15.5535 12.331 15.4038 12.5898C15.8122 11.9311 15.2263 12.3217 15.8259 11.4524L16.0474 11.7573C15.9651 11.2106 16.7263 10.5467 16.6491 9.68194C16.8237 9.41753 16.844 9.96649 16.6586 10.5749C16.9158 9.89993 16.7263 9.79146 16.7925 9.23459C16.8639 9.42176 16.9576 9.62073 17.0056 9.81825C16.8381 9.16602 17.1776 8.71991 17.2615 8.34085C17.1787 8.3042 17.003 8.62927 16.9628 7.85886C16.9687 7.52421 17.0559 7.68341 17.0896 7.6011C17.0238 7.56335 16.8515 7.30685 16.7467 6.8148C16.8226 6.69924 16.9498 7.11461 17.0533 7.13161C16.9867 6.7404 16.8721 6.44211 16.8675 6.14196C16.5653 5.51048 16.7606 6.22614 16.5154 5.87088C16.1938 4.86762 16.7823 5.63804 16.8221 5.18215C17.3096 5.8885 17.5876 6.98316 17.7151 7.43662C17.6178 6.88378 17.4604 6.34821 17.2684 5.83007C17.4164 5.89232 17.0299 4.69259 17.4609 5.48723C17.0005 3.79344 15.4907 2.21083 14.1018 1.46824C14.2718 1.6237 14.4863 1.81906 14.4092 1.84967C13.7185 1.4384 13.84 1.40633 13.7411 1.23256C13.1783 1.0036 13.1414 1.25102 12.7686 1.23297C11.708 0.670411 11.5036 0.730234 10.5276 0.377817L10.572 0.585325C9.86933 0.351237 9.75329 0.674089 8.99384 0.586019C8.94762 0.549931 9.23723 0.455477 9.47548 0.420846C8.79612 0.510373 8.82797 0.286903 8.16319 0.445552C8.32704 0.330556 8.50026 0.254493 8.67508 0.156776C8.12106 0.190436 7.35245 0.479212 7.58966 0.2166C6.68606 0.619748 5.08117 1.18571 4.18056 2.03018L4.15211 1.84092C3.73952 2.33644 2.35255 3.32054 2.24206 3.96215L2.13172 3.9879C1.91699 4.35156 1.77805 4.76359 1.60774 5.13773C1.32688 5.61632 1.19606 5.32192 1.23603 5.39694C0.683602 6.51693 0.409192 7.45814 0.172119 8.22994C0.34111 8.48242 0.176214 9.74982 0.240132 10.7642C-0.037332 15.7741 3.75611 20.6382 7.90266 21.7613C8.5104 21.9787 9.4142 21.9704 10.183 21.9927C9.27596 21.7333 9.15867 21.8552 8.2752 21.5472C7.63775 21.247 7.49805 20.9043 7.04667 20.5125L7.22531 20.8283C6.33989 20.515 6.71035 20.4405 5.99011 20.2124L6.18096 19.9632C5.89399 19.9414 5.42082 19.4794 5.29146 19.2238L4.97756 19.2361C4.60037 18.7707 4.39938 18.4352 4.41402 18.1755L4.31256 18.3562C4.19756 18.1589 2.9249 16.6108 3.58517 16.9712C3.46247 16.859 3.29945 16.7886 3.12262 16.4674L3.25705 16.3137C2.93926 15.9049 2.67221 15.3808 2.69247 15.2062C2.86202 15.4352 2.97965 15.4779 3.09604 15.5171C2.29356 13.526 2.24859 15.4074 1.64078 13.4904L1.76937 13.48C1.67083 13.3316 1.611 13.1704 1.53168 13.0123L1.58768 12.4545C1.00992 11.7865 1.42598 9.61421 1.5094 8.42281C1.56714 7.93839 1.9916 7.42261 2.31445 6.61388L2.11777 6.58001C2.49371 5.92418 4.26454 3.94612 5.08464 4.04793C5.48189 3.54894 5.00573 4.04613 4.92807 3.92037C5.80065 3.01733 6.07506 3.28237 6.66399 3.11998C7.29908 2.74299 6.11885 3.26697 6.41998 2.97618C7.5179 2.69573 7.1981 2.33859 8.63039 2.19625C8.78154 2.28224 8.27985 2.32909 8.15389 2.44061C9.06866 1.99305 11.0487 2.09486 12.3349 2.68907C13.8272 3.38647 15.5039 5.44802 15.57 7.38777L15.6453 7.40803C15.6071 8.17907 15.7632 9.07073 15.4927 9.8898L15.6769 9.50206Z" fill="white"/>
<path d="M6.62823 12.1197L6.57715 12.3752C6.81658 12.7005 7.00667 13.0529 7.31245 13.3073C7.09245 12.8777 6.92901 12.7003 6.62823 12.1197Z" fill="white"/>
<path d="M7.19466 12.0974C7.06786 11.9572 6.99284 11.7886 6.90894 11.6204C6.98923 11.9159 7.15364 12.1698 7.30681 12.428L7.19466 12.0974Z" fill="white"/>
<path d="M17.2132 9.91985L17.1597 10.0541C17.0615 10.7513 16.8496 11.4412 16.5247 12.0808C16.8837 11.4059 17.1159 10.6678 17.2132 9.91985Z" fill="white"/>
<path d="M9.29616 0.108959C9.54253 0.0186688 9.90189 0.0594069 10.1633 0C9.82256 0.0285931 9.48354 0.0455962 9.14868 0.0888328L9.29616 0.108959Z" fill="white"/>
<path d="M0.646 4.70863C0.702839 5.23427 0.250555 5.4383 0.746214 5.09172C1.01188 4.49328 0.642391 4.92647 0.646 4.70863Z" fill="white"/>
<path d="M0.0634926 7.14132C0.177657 6.79092 0.198338 6.58043 0.241991 6.37764C-0.0735737 6.781 0.0968049 6.86691 0.0634926 7.14132Z" fill="white"/>
</g>
<defs>
<clipPath id="clip0">
<rect width="17.77" height="22" fill="white"/>
</clipPath>
</defs>
</svg>
