<svg width="16" height="16" viewBox="0 0 22 16" fill="none" xmlns="http://www.w3.org/2000/svg">
<path d="M4.41866 12.8338C3.79235 12.8338 3.2231 12.3223 3.2231 11.6987C3.2231 11.0752 3.7346 10.5602 4.41866 10.5602C5.10616 10.5602 5.62247 11.0724 5.62247 11.6987C5.62247 12.3223 5.04978 12.8338 4.42278 12.8338H4.41866ZM19.0961 6.636C18.9703 5.72643 18.4086 4.98531 17.6668 4.4195L17.3773 4.19056L17.1443 4.47312C16.6933 4.98531 16.5111 5.89487 16.5675 6.57481C16.6218 7.09112 16.7854 7.60262 17.0762 8C16.8397 8.12168 16.5537 8.22893 16.331 8.34718C15.8085 8.51837 15.2997 8.57612 14.7917 8.57612H0.08947L0.03172 8.91231C-0.079485 10.0213 0.098393 11.1402 0.548033 12.1601L0.773533 12.5581V12.6111C2.14853 14.8887 4.59397 15.9131 7.26147 15.9131C12.3895 15.9131 16.5929 13.6966 18.5867 8.91643C19.8936 8.9735 21.2122 8.63318 21.831 7.37987L21.996 7.09731L21.7237 6.92475C20.9792 6.47031 19.9617 6.40981 19.1105 6.63875L19.092 6.64218L19.0961 6.636ZM11.7557 5.72643H9.52885V7.94568H11.7557V5.72643ZM11.7557 2.93725H9.52885V5.1565H11.7557V2.93725ZM11.7557 0.0903091H9.52885V2.31025H11.7557V0.0903091ZM14.4768 5.72643H12.2637V7.94568H14.4837V5.72643H14.4768ZM6.23091 5.72643H4.01785V7.94568H6.23778V5.72643H6.23091ZM9.00566 5.72643H6.80772V7.94568H9.02078V5.72643H9.00566ZM3.48091 5.72643H1.2816V7.94568H3.5091V5.72643H3.48091ZM9.00566 2.93725H6.80772V5.1565H9.02078V2.94L9.00566 2.93725ZM6.21578 2.93725H4.02128V5.1565H6.23435V2.94L6.21991 2.93725H6.21578Z" fill="#066DA5"/>
</svg>
