<svg width="22" height="22" viewBox="0 0 22 22" fill="none" xmlns="http://www.w3.org/2000/svg">
<path d="M22 11C22 17.0751 17.0751 22 11 22C4.92487 22 0 17.0751 0 11C0 4.92487 4.92487 0 11 0C17.0751 0 22 4.92487 22 11Z" fill="#171515"/>
<path d="M6.66712 5.64184C6.42845 4.81625 6.52095 3.87095 6.78776 3C7.60715 3.05439 8.47041 3.41086 9.16683 4.05073C10.5281 3.6333 12.0476 3.63546 13.4671 3.9974C13.6433 3.83567 13.9316 3.63724 14.3321 3.4036C14.7326 3.16996 15.2293 3.03597 15.8219 3.00004C15.9501 3.35946 16.0347 3.76432 16.0747 4.21359C16.1148 4.66286 16.0861 5.09308 15.9901 5.5064C16.6746 6.28656 16.9747 7.30501 17 8.47251C16.9932 10.2865 16.5497 11.6399 14.9455 12.5152C14.4088 12.7848 13.7239 12.9564 12.8909 13.0283C13.5901 13.4201 13.9407 13.7566 14.0561 14.7795C14.1146 15.7167 14.0445 16.7105 14.1164 17.6375C14.1805 17.7812 14.2722 17.9073 14.3923 18.0151C14.5125 18.1229 14.6125 18.2033 14.6927 18.2572C14.7728 18.3111 14.7966 18.3781 14.7645 18.459C14.7325 18.5398 14.6206 18.5895 14.4283 18.6075C14.0063 18.6046 13.6028 18.4106 13.335 18.0281C13.2469 17.8933 13.2028 17.7177 13.2028 17.502V15.2926C13.2028 15.041 13.1516 14.8613 13.0475 14.7535C12.9434 14.6457 12.835 14.5733 12.7229 14.5374V17.4487C12.7229 17.9698 12.7789 18.3117 12.891 18.4734C12.9761 18.6013 13.0565 18.741 13.095 18.9043C13.1031 18.9582 13.0744 18.989 13.0104 18.998C12.9463 19.007 12.8272 18.9856 12.651 18.9317C12.3146 18.8419 12.074 18.634 11.9298 18.3105C11.7857 17.987 11.713 17.6467 11.713 17.2872V14.4292H11.1842V17.2872C11.1842 17.6467 11.1163 17.987 10.9802 18.3105C10.8088 18.7002 10.3205 18.9775 9.89967 18.998C9.84362 18.9891 9.81497 18.9582 9.81497 18.9043C9.81772 18.7398 9.95831 18.6119 10.0318 18.4734C10.0639 18.4015 10.0996 18.2755 10.1396 18.0958C10.1797 17.9161 10.1999 17.7003 10.1999 17.4487V14.5373C10.0878 14.5733 9.98291 14.6457 9.88683 14.7535C9.7907 14.8614 9.7431 15.041 9.7431 15.2926V17.502C9.7431 17.7177 9.69902 17.8933 9.61092 18.0281C9.36196 18.4031 8.94072 18.5953 8.51757 18.6074C8.32537 18.5895 8.21339 18.5398 8.18136 18.459C8.11443 18.2791 8.44644 18.1324 8.55351 18.015C8.67365 17.9072 8.76532 17.7812 8.82941 17.6375C8.9984 17.1212 8.76867 16.2199 8.85382 15.6428C8.12354 15.9426 7.28921 15.6969 6.66709 15.2248C6.44284 15.0002 6.22729 14.6449 6.01904 14.1597C5.80171 13.712 5.43059 13.3387 5.04503 12.9865C4.98896 12.9236 4.98542 12.866 5.03348 12.8121C5.1296 12.6863 5.26181 12.6327 5.43002 12.6507C5.59822 12.6687 5.69828 12.6955 5.73031 12.7314C6.23963 12.9795 6.44773 13.649 6.90707 14.0257C7.48833 14.564 8.29047 14.6821 8.95006 14.1871C9.09554 13.5009 9.5124 13.3113 10.1038 13.001C9.22269 12.929 8.50209 12.7628 7.94143 12.5023C7.38076 12.2417 6.93521 11.9093 6.60682 11.5049C5.67198 10.3334 5.56768 8.39705 5.99468 6.88133C6.1549 6.41407 6.37878 6.00124 6.66712 5.64184Z" fill="white"/>
</svg>
