<svg width="22" height="22" viewBox="0 0 22 22" fill="none" xmlns="http://www.w3.org/2000/svg">
<circle cx="11" cy="11" r="11" fill="white"/>
<g clip-path="url(#clip0)">
<path d="M8.2637 15.6894C8.2637 15.6894 7.49495 16.1335 8.79808 16.2606C10.3668 16.4506 11.2025 16.4191 12.9387 16.102C13.2877 16.305 13.6567 16.4751 14.0406 16.6097C10.1343 18.1962 5.19058 16.5147 8.26308 15.6894H8.2637ZM7.7637 13.6273C7.7637 13.6273 6.9287 14.2299 8.2312 14.3576C9.93433 14.5161 11.27 14.5476 13.575 14.1041C13.7991 14.32 14.0736 14.483 14.3762 14.5797C9.66745 15.912 4.3912 14.7067 7.7637 13.6279V13.6273ZM16.9806 17.2432C16.9806 17.2432 17.5481 17.6873 16.3462 18.0365C14.1087 18.6718 6.96245 18.8618 4.9587 18.0365C4.25745 17.7515 5.59308 17.3388 6.0212 17.2753C6.45558 17.1803 6.68995 17.1803 6.68995 17.1803C5.9212 16.6726 1.58057 18.2271 4.4862 18.6706C12.4675 19.908 19.0462 18.1315 16.9756 17.2432H16.9806ZM8.62495 11.4696C8.62495 11.4696 4.98495 12.2949 7.32245 12.5799C8.32433 12.707 10.2943 12.6749 12.1312 12.5484C13.6337 12.4214 15.1375 12.1684 15.1375 12.1684C15.1375 12.1684 14.6031 12.3905 14.2356 12.6126C10.5293 13.5329 3.41557 13.1202 5.45307 12.1684C7.18933 11.3752 8.62558 11.4708 8.62558 11.4708L8.62495 11.4696ZM15.1375 14.9276C18.8775 13.087 17.1412 11.3117 15.9387 11.5331C15.6387 11.5967 15.5043 11.6602 15.5043 11.6602C15.5043 11.6602 15.6043 11.4702 15.8381 11.4067C18.2093 10.6134 20.0793 13.7858 15.0693 15.0226C15.0693 15.0226 15.1025 14.9911 15.1362 14.9276H15.1375ZM8.9937 19.94C12.6 20.1621 18.1106 19.813 18.2437 18.1944C18.2437 18.1944 17.9768 18.8297 15.2718 19.3047C12.1993 19.8438 8.39245 19.7797 6.15495 19.4318C6.15495 19.4318 6.62245 19.8118 8.9937 19.9394V19.94Z" fill="#4E7896"/>
<path d="M12.8724 1.00069C12.8724 1.00069 14.943 2.99925 10.9024 6.01312C7.663 8.45581 10.168 9.85172 10.9024 11.4382C8.99863 9.82025 7.62988 8.39228 8.56488 7.0605C9.93363 5.09281 13.7074 4.14697 12.8724 1.00069ZM11.8099 10.1058C12.7786 11.1526 11.543 12.1044 11.543 12.1044C11.543 12.1044 14.0143 10.8991 12.8786 9.40759C11.8436 7.98022 11.0411 7.28197 15.383 4.90281C15.383 4.90281 8.53738 6.52078 11.8099 10.1058V10.1058Z" fill="#F58219"/>
</g>
<defs>
<clipPath id="clip0">
<rect width="20" height="19" fill="white" transform="translate(1 1)"/>
</clipPath>
</defs>
</svg>
