<svg width="16" height="15" viewBox="0 0 16 15" fill="none" xmlns="http://www.w3.org/2000/svg">
  <g clip-path="url(#clip0)">
    <path d="M8.86777 0C8.75889 0 8.65777 0.0233529 8.56442 0.0544706C8.76277 0.186647 8.87165 0.361647 8.92607 0.56C8.93001 0.587235 8.93777 0.606706 8.94165 0.633882C8.94554 0.657235 8.94942 0.680588 8.94942 0.703882C8.96501 1.04612 8.86001 1.08888 8.78607 1.29112C8.6733 1.55171 8.70442 1.83171 8.84054 2.05724C8.85218 2.08447 8.86777 2.11559 8.88718 2.14282C8.73942 1.15888 9.56001 1.01112 9.71165 0.703882C9.7233 0.435588 9.50165 0.256647 9.32665 0.132235C9.15942 0.0310588 9.00777 0 8.86777 0ZM10.1044 0.221647C10.0889 0.311118 10.1005 0.287765 10.0967 0.334471C10.0928 0.365588 10.0928 0.404471 10.0889 0.435588C10.0811 0.466647 10.0734 0.497765 10.0617 0.528882C10.0539 0.560059 10.0422 0.591118 10.0306 0.622235C10.015 0.653353 10.0034 0.680588 9.98777 0.711647C9.97612 0.727235 9.96836 0.742824 9.95665 0.758353L9.93336 0.793353C9.91395 0.820588 9.89448 0.847824 9.87501 0.871118C9.85165 0.894471 9.83224 0.921706 9.80501 0.941118V0.945C9.78165 0.964471 9.75836 0.987823 9.73112 1.00724C9.64948 1.06947 9.55612 1.11612 9.47054 1.17447C9.44336 1.19388 9.41612 1.20947 9.39277 1.23282C9.36554 1.25224 9.34218 1.27165 9.31889 1.29506C9.29165 1.31835 9.27224 1.34171 9.24889 1.36894C9.22948 1.39224 9.20612 1.41953 9.19054 1.44671C9.17112 1.47394 9.15171 1.50112 9.13612 1.52835C9.12054 1.55953 9.10889 1.58671 9.0933 1.61776C9.08165 1.64894 9.07001 1.67618 9.06224 1.70724C9.05054 1.74224 9.04277 1.77335 9.03501 1.80447C9.03112 1.82006 9.03112 1.83947 9.02724 1.85506C9.0233 1.87059 9.0233 1.88618 9.01948 1.90171C9.01948 1.93282 9.01554 1.96782 9.01554 1.99894C9.01554 2.02229 9.01554 2.04559 9.01948 2.06894C9.01948 2.10006 9.02336 2.13118 9.03112 2.16618C9.03501 2.19729 9.04277 2.22835 9.05054 2.25947C9.06224 2.29065 9.07001 2.32171 9.08171 2.35282C9.08942 2.37224 9.10112 2.39171 9.10889 2.40729L8.21448 2.06118C8.06507 2.01864 7.91465 1.97972 7.76336 1.94447L7.51836 1.88618C7.28501 1.83947 7.04777 1.80447 6.8106 1.78118C6.80283 1.78118 6.79889 1.77724 6.79118 1.77724C6.55986 1.75394 6.32751 1.74226 6.09501 1.74224C5.92389 1.74224 5.75277 1.75 5.5856 1.76165C5.3483 1.77724 5.11112 1.80835 4.87383 1.84724C4.81554 1.85506 4.75718 1.86671 4.69889 1.87841C4.5783 1.90171 4.46165 1.92894 4.34889 1.95618L4.17383 2.00282C4.11554 2.02618 4.06107 2.05341 4.00665 2.07671L3.8783 2.13506C3.87054 2.13894 3.86271 2.13894 3.85889 2.14282C3.81995 2.16224 3.78495 2.17782 3.74995 2.19724C3.74058 2.20042 3.73147 2.20433 3.72271 2.20894C3.67995 2.22835 3.63718 2.25171 3.60218 2.27118C3.57495 2.28282 3.54771 2.29835 3.52442 2.31C3.51313 2.31715 3.50145 2.32365 3.48942 2.32947C3.45442 2.34888 3.41942 2.36835 3.38824 2.38782C3.3533 2.40724 3.32218 2.42671 3.29495 2.44618C3.26771 2.46559 3.24054 2.48118 3.21718 2.50059C3.2133 2.50447 3.20942 2.50447 3.20548 2.50835C3.18218 2.52394 3.15495 2.54335 3.1316 2.56282L3.12383 2.57059L3.06554 2.61724C3.05771 2.62118 3.04995 2.62894 3.04218 2.63282C3.02277 2.64835 3.0033 2.66782 2.98383 2.68341C2.97995 2.69112 2.97218 2.69506 2.9683 2.69894C2.94495 2.72229 2.9216 2.74171 2.8983 2.76506C2.89436 2.76506 2.89436 2.76894 2.89054 2.77282C2.86718 2.79224 2.84383 2.81559 2.82054 2.83894C2.8166 2.84282 2.8166 2.84671 2.81271 2.84671C2.7933 2.86612 2.77389 2.88559 2.75442 2.90894C2.74665 2.91671 2.73501 2.92447 2.72718 2.93224C2.70777 2.95559 2.68442 2.97894 2.66107 3.00224C2.65718 3.01006 2.64942 3.01394 2.64548 3.02171C2.61442 3.05282 2.58718 3.08394 2.55607 3.11506L2.54442 3.12671C2.48218 3.19282 2.41607 3.25894 2.34607 3.31729C2.27711 3.37883 2.20436 3.43598 2.12824 3.48841C2.05284 3.54129 1.97498 3.5906 1.89495 3.63618C1.81558 3.67971 1.73378 3.71865 1.64995 3.75282C1.56722 3.78798 1.48285 3.81913 1.39712 3.84618C1.23383 3.88118 1.06654 3.94729 0.922713 3.95894C0.891536 3.95894 0.856595 3.96671 0.825478 3.97059C0.790478 3.97841 0.75936 3.98618 0.728242 3.99394L0.634889 4.02894C0.603772 4.04059 0.572713 4.05618 0.541595 4.07171C0.51436 4.09112 0.483242 4.10671 0.456007 4.12618C0.428772 4.14559 0.401595 4.16894 0.378242 4.19229C0.351007 4.21171 0.323772 4.23894 0.300478 4.26229C0.277125 4.28953 0.253772 4.31288 0.23436 4.34006C0.214948 4.37118 0.191595 4.39841 0.176007 4.42947C0.156595 4.45676 0.137125 4.48782 0.121536 4.51894C0.106007 4.55394 0.0904777 4.58506 0.0787718 4.62012C0.066505 4.65359 0.0548365 4.68728 0.0437718 4.72118C0.0360071 4.75229 0.0282424 4.78341 0.02436 4.81453C0.02436 4.81841 0.0204188 4.82229 0.0204188 4.82618C0.0126541 4.86118 0.0126541 4.90788 0.00877179 4.93118C0.00488943 4.95841 0.00100708 4.98176 0.00100708 5.00894C0.00100708 5.02453 0.00100708 5.04394 0.00488943 5.05953C0.00877179 5.08676 0.0126541 5.11012 0.0204777 5.13341C0.0282424 5.15676 0.0360071 5.18006 0.047713 5.20341V5.20729C0.05936 5.23065 0.0748894 5.254 0.0904777 5.27729C0.106007 5.30065 0.121595 5.324 0.141066 5.34729C0.160478 5.36671 0.183772 5.39012 0.207125 5.40953C0.230478 5.43288 0.253831 5.45229 0.281007 5.47176C0.37436 5.55341 0.397713 5.58065 0.518242 5.64288C0.537654 5.65453 0.557125 5.66229 0.580478 5.674C0.58436 5.674 0.588242 5.67788 0.592125 5.67788C0.592125 5.68565 0.592125 5.68953 0.596066 5.69729C0.599948 5.72847 0.607713 5.75953 0.615478 5.79065C0.623242 5.82565 0.634889 5.85676 0.646595 5.884C0.658242 5.90735 0.666007 5.93065 0.677713 5.954C0.681595 5.96176 0.685478 5.96959 0.68936 5.97341C0.704948 6.00459 0.720536 6.03176 0.736066 6.059L0.79436 6.14065C0.813772 6.164 0.837125 6.19124 0.860478 6.21459C0.883831 6.23788 0.907184 6.25735 0.93436 6.28065C0.93436 6.28065 0.938301 6.28459 0.942125 6.28459C0.965478 6.304 0.988831 6.32341 1.01212 6.339C1.03936 6.35841 1.0666 6.374 1.09771 6.38959C1.12495 6.40512 1.15607 6.42071 1.18712 6.43235C1.21048 6.444 1.23771 6.45176 1.26495 6.45959C1.26883 6.46347 1.27271 6.46347 1.28048 6.46735C1.29607 6.47124 1.31548 6.47512 1.33107 6.479C1.31936 6.689 1.31548 6.88735 1.3466 6.95735C1.3816 7.03512 1.55271 6.79794 1.72383 6.52571C1.70054 6.794 1.68501 7.109 1.72383 7.20235C1.7666 7.29959 1.99995 6.99624 2.20218 6.66176C4.95948 6.024 7.4756 7.92959 7.74007 10.6208C7.68948 10.2008 7.1723 9.96741 6.93507 10.0258C6.81836 10.3135 6.62007 10.683 6.30118 10.9124C6.32836 10.6558 6.31671 10.3913 6.26224 10.1346C6.17671 10.4924 6.00948 10.8269 5.78001 11.1146C5.4106 11.1419 5.04118 10.963 4.84665 10.6946C4.83112 10.683 4.82724 10.6596 4.8156 10.6441C4.80389 10.6169 4.79224 10.5896 4.78442 10.5624C4.77309 10.5363 4.76526 10.5089 4.76112 10.4808C4.75724 10.4535 4.75724 10.4263 4.75724 10.3952V10.3369C4.76112 10.3096 4.76889 10.2824 4.77665 10.2552C4.78442 10.228 4.79224 10.2008 4.80389 10.1735C4.81948 10.1463 4.83112 10.1191 4.85054 10.0919C4.91665 9.90518 4.91665 9.75353 4.79612 9.66406C4.77277 9.64882 4.74804 9.63582 4.72224 9.62524C4.70665 9.62129 4.68724 9.61347 4.67165 9.60965C4.66001 9.60571 4.65224 9.60182 4.64054 9.59794C4.61336 9.59018 4.58612 9.58241 4.55889 9.57853C4.53235 9.57084 4.50487 9.5669 4.47724 9.56682C4.45001 9.56294 4.41889 9.55906 4.39165 9.55906C4.37224 9.55906 4.35283 9.56294 4.3333 9.56294C4.30224 9.56294 4.27501 9.56688 4.24777 9.57465C4.22054 9.57853 4.1933 9.58241 4.16612 9.59018C4.13889 9.59794 4.11165 9.60576 4.08442 9.61741C4.05724 9.62906 4.03383 9.64076 4.00665 9.65241C3.9833 9.66406 3.96001 9.67965 3.93277 9.69129C3.02665 10.2825 3.56718 11.6669 4.18554 12.0675C3.95218 12.1102 3.71495 12.1608 3.64889 12.2114L3.64112 12.2191C3.8083 12.3203 3.9833 12.4058 4.16612 12.4797C4.41501 12.5614 4.67948 12.6352 4.79612 12.6664V12.6702C5.11833 12.7363 5.4478 12.7598 5.77612 12.7402C7.49895 12.6196 8.91065 11.3091 9.1673 9.58241C9.17507 9.61741 9.18289 9.64853 9.19065 9.68353C9.2023 9.75353 9.21789 9.82741 9.22565 9.90129V9.90524C9.23342 9.94024 9.2373 9.97524 9.24124 10.0064V10.0219C9.24512 10.0569 9.24901 10.0919 9.24901 10.123C9.25289 10.1658 9.25677 10.2085 9.25677 10.2514V10.3135C9.25677 10.333 9.26065 10.3564 9.26065 10.3758C9.26065 10.3991 9.25677 10.4225 9.25677 10.4458V10.5002C9.25677 10.5275 9.25289 10.5508 9.25289 10.578C9.25289 10.5936 9.25289 10.6091 9.24895 10.6286C9.24895 10.6558 9.24507 10.683 9.24507 10.7141C9.24118 10.7258 9.24118 10.7375 9.24118 10.7491C9.2373 10.7802 9.23342 10.8075 9.22948 10.8385C9.22948 10.8502 9.22948 10.8619 9.22559 10.8736C9.22171 10.9124 9.21395 10.9475 9.21007 10.9864V10.9941C9.2023 11.0291 9.19448 11.0681 9.18671 11.1031V11.1147L9.16336 11.2197C9.16336 11.2236 9.15948 11.2314 9.15948 11.2352C9.15171 11.2702 9.14395 11.3052 9.13224 11.3403V11.3519C9.12059 11.3908 9.10895 11.4258 9.10118 11.4608C9.09724 11.4647 9.09724 11.4686 9.09724 11.4686L9.06224 11.5852C9.04671 11.6242 9.03507 11.6592 9.01948 11.6981C9.00395 11.7369 8.99224 11.7758 8.97671 11.8108C8.96112 11.8497 8.94554 11.8847 8.93007 11.9236H8.92612C8.91059 11.9586 8.89501 11.9975 8.87554 12.0325C8.87237 12.0418 8.86848 12.0509 8.86389 12.0597C8.86001 12.0636 8.86001 12.0675 8.85612 12.0714C8.60336 12.5808 8.23001 13.0281 7.76336 13.3781C7.73218 13.3975 7.70112 13.4209 7.67001 13.4442C7.66224 13.4519 7.65059 13.4559 7.64277 13.4636C7.61554 13.4831 7.58836 13.5025 7.55724 13.5219L7.56889 13.5453H7.57277L7.73612 13.5219H7.74001C7.84118 13.5064 7.94224 13.4869 8.04336 13.4675C8.07059 13.4636 8.10171 13.4559 8.12889 13.4481C8.14836 13.4442 8.16389 13.4403 8.18336 13.4364C8.21059 13.4325 8.23783 13.4248 8.26501 13.4208C8.28836 13.4131 8.31171 13.4092 8.33501 13.4014C8.72395 13.3081 9.10118 13.1797 9.46283 13.0281C8.84448 13.8719 8.01612 14.5525 7.04777 14.9998C7.49501 14.9686 7.94224 14.8948 8.37395 14.7704C9.94118 14.3075 11.2595 13.2536 12.049 11.8342C11.8887 12.7346 11.5315 13.5885 11.0028 14.3348C11.3797 14.0861 11.728 13.7966 12.0412 13.4714C12.9124 12.5614 13.484 11.4064 13.6785 10.1658C13.8111 10.7812 13.8492 11.4134 13.7912 12.0403C16.5991 8.12406 14.0246 4.064 12.9474 2.99453C12.9434 2.98676 12.9396 2.98288 12.9396 2.97512C12.9357 2.979 12.9357 2.979 12.9357 2.98288C12.9357 2.97894 12.9357 2.97894 12.9318 2.97512C12.9318 3.02176 12.9279 3.06841 12.924 3.11512C12.9124 3.20453 12.9007 3.29012 12.8851 3.37571C12.8657 3.46124 12.8424 3.54676 12.819 3.63235C12.7913 3.71654 12.7602 3.79955 12.7257 3.88118C12.6907 3.959 12.6518 4.04065 12.609 4.11847C12.5662 4.19235 12.5196 4.27012 12.469 4.34012C12.419 4.41244 12.3658 4.48251 12.3096 4.55012C12.2512 4.62012 12.189 4.68235 12.1268 4.74459C12.0902 4.77809 12.0525 4.8105 12.014 4.84176C11.9828 4.869 11.9557 4.89235 11.9245 4.91959C11.8545 4.974 11.7845 5.02459 11.7068 5.07124C11.6329 5.11788 11.5551 5.16459 11.4774 5.20347C11.3956 5.24235 11.3139 5.27735 11.2323 5.31235C11.1494 5.34364 11.0651 5.37089 10.9795 5.394C10.8935 5.41715 10.8066 5.43662 10.7189 5.45235C10.6295 5.46794 10.5401 5.47571 10.4545 5.48347C10.3923 5.48735 10.3301 5.49124 10.2678 5.49124C10.1784 5.49124 10.0889 5.48347 10.0034 5.47571C9.91395 5.46788 9.82448 5.45624 9.73895 5.43676C9.64954 5.42124 9.56395 5.39794 9.47836 5.37071H9.47448C9.56007 5.36288 9.64565 5.35512 9.73118 5.33953C9.81892 5.32423 9.90588 5.30477 9.99177 5.28124C10.0773 5.25812 10.1616 5.23088 10.2445 5.19959C10.3301 5.16841 10.4117 5.12959 10.4895 5.09065C10.5712 5.05182 10.6451 5.009 10.7228 4.96235C10.7967 4.91176 10.8707 4.86118 10.9407 4.80676C11.0103 4.7526 11.0765 4.69416 11.1389 4.63176C11.2051 4.57341 11.2634 4.50735 11.3218 4.44118C11.3786 4.37308 11.4331 4.30304 11.4851 4.23118C11.4928 4.21953 11.5007 4.204 11.5084 4.19235C11.5473 4.13012 11.5862 4.06788 11.6212 4.00565C11.664 3.92854 11.7029 3.84936 11.7379 3.76841C11.773 3.68704 11.8042 3.604 11.8312 3.51959C11.8584 3.43782 11.8779 3.35229 11.8973 3.26676C11.9129 3.17735 11.9285 3.09176 11.9362 3.00618C11.9439 2.91676 11.9518 2.82735 11.9518 2.74176C11.9518 2.67953 11.9479 2.61729 11.944 2.55506C11.9362 2.46565 11.9246 2.38006 11.9128 2.29447C11.8975 2.20676 11.8781 2.11982 11.8546 2.03394C11.8273 1.95229 11.8001 1.86671 11.769 1.78506C11.7378 1.70341 11.699 1.62171 11.6601 1.54394C11.6173 1.46618 11.5745 1.38835 11.5279 1.31453C11.4782 1.24163 11.4263 1.17029 11.3723 1.10059C11.3138 1.03351 11.2541 0.967381 11.1934 0.902235C11.1607 0.868878 11.1269 0.836472 11.0923 0.805059C10.9181 0.66974 10.7377 0.542546 10.5517 0.423882C10.5266 0.409396 10.5006 0.396431 10.4739 0.385059C10.3457 0.303353 10.2251 0.260588 10.1045 0.221706L10.1044 0.221647Z" fill="#E0234E" />
  </g>
  <defs>
    <clipPath id="clip0">
      <rect width="15.06" height="15" fill="white" />
    </clipPath>
  </defs>
</svg>