<svg width="17" height="15" viewBox="0 0 17 15" fill="none" xmlns="http://www.w3.org/2000/svg">
<g clip-path="url(#clip0)">
<path d="M13.8515 4.85684C13.6723 4.79535 13.4915 4.73838 13.3094 4.68599C13.34 4.56099 13.3681 4.4375 13.3931 4.31618C13.8035 2.32401 13.5353 0.719079 12.6189 0.190658C11.7403 -0.315921 10.3033 0.212303 8.85216 1.47526C8.70914 1.59996 8.56929 1.72824 8.43275 1.86C8.34135 1.77239 8.24833 1.68647 8.15374 1.6023C6.63282 0.251908 5.10834 -0.317237 4.19295 0.212697C3.31512 0.720855 3.05519 2.22961 3.42466 4.11763C3.46142 4.30462 3.50292 4.49065 3.54913 4.67553C3.33334 4.73684 3.12512 4.80211 2.92584 4.87158C1.14269 5.49329 0.00393677 6.46757 0.00393677 7.47816C0.00393677 8.52191 1.22644 9.56882 3.08367 10.2036C3.23424 10.2549 3.38607 10.3024 3.539 10.3461C3.48933 10.5452 3.44524 10.7457 3.40677 10.9472C3.05453 12.8025 3.32959 14.2756 4.20506 14.7805C5.10927 15.302 6.6269 14.7661 8.10459 13.4743C8.22442 13.3693 8.34161 13.2613 8.45604 13.1504C8.60391 13.2931 8.75572 13.4316 8.91131 13.5658C10.3428 14.7975 11.7564 15.2949 12.631 14.7886C13.5344 14.2656 13.828 12.6831 13.4468 10.7578C13.4168 10.6069 13.3831 10.4568 13.3458 10.3076C13.4524 10.2761 13.557 10.2436 13.659 10.2097C15.5898 9.57007 16.846 8.53586 16.846 7.47816C16.846 6.46388 15.6705 5.48303 13.8515 4.85684V4.85684ZM13.4328 9.52684C13.3406 9.5573 13.2462 9.58671 13.1499 9.61533C12.9367 8.94053 12.6491 8.22303 12.297 7.48164C12.633 6.75796 12.9095 6.04961 13.1167 5.37921C13.289 5.42908 13.4562 5.48164 13.6174 5.53711C15.1759 6.07368 16.1266 6.86691 16.1266 7.47816C16.1266 8.12921 15.0999 8.97441 13.4328 9.52684V9.52684ZM12.741 10.8975C12.9096 11.7488 12.9336 12.5186 12.822 13.1203C12.7217 13.6611 12.52 14.0215 12.2705 14.1659C11.7398 14.4732 10.6047 14.0738 9.38058 13.0204C9.23587 12.8956 9.09465 12.7668 8.95709 12.6342C9.4317 12.1152 9.90598 11.5118 10.3689 10.8417C11.1831 10.7695 11.9523 10.6513 12.6499 10.4901C12.6842 10.6287 12.7147 10.7646 12.741 10.8975V10.8975ZM5.74578 14.1128C5.22723 14.2959 4.8142 14.3012 4.56453 14.1572C4.03328 13.8509 3.81242 12.668 4.11367 11.0814C4.14948 10.894 4.19049 10.7075 4.23663 10.5223C4.9265 10.6749 5.69012 10.7847 6.50624 10.8509C6.97229 11.5066 7.46025 12.1093 7.95203 12.637C7.84752 12.7382 7.74053 12.8367 7.63117 12.9326C6.97769 13.5038 6.32288 13.909 5.74578 14.1128V14.1128ZM3.31644 9.52283C2.49519 9.24211 1.81696 8.8773 1.35209 8.47921C0.934332 8.12151 0.723476 7.76632 0.723476 7.47816C0.723476 6.86487 1.63775 6.08263 3.16269 5.55099C3.34775 5.48651 3.54144 5.42566 3.74242 5.36855C3.95321 6.05408 4.22966 6.77086 4.56328 7.49566C4.22532 8.23118 3.94492 8.95941 3.73209 9.65303C3.5925 9.61304 3.4539 9.56963 3.31644 9.52283V9.52283ZM4.13078 3.97941C3.81427 2.36184 4.02446 1.14164 4.55348 0.835395C5.1169 0.50921 6.36282 0.974276 7.67604 2.14033C7.76168 2.21654 7.84592 2.29429 7.92874 2.37355C7.4394 2.89901 6.95591 3.49724 6.494 4.14908C5.7019 4.2225 4.94367 4.34039 4.24657 4.49836C4.20362 4.3264 4.16501 4.15338 4.13078 3.97947V3.97941ZM11.3957 5.77336C11.2311 5.48894 11.0603 5.20811 10.8835 4.93105C11.4209 4.99901 11.9358 5.08921 12.4193 5.19947C12.2741 5.66474 12.0932 6.15112 11.8803 6.6498C11.7246 6.35446 11.563 6.06225 11.3957 5.77336V5.77336ZM8.43308 2.88776C8.76492 3.2473 9.09729 3.64868 9.4242 4.08421C8.76104 4.05289 8.09678 4.05276 7.43361 4.08382C7.76084 3.6523 8.09604 3.25145 8.43308 2.88776ZM5.45144 5.77829C5.2862 6.06486 5.12767 6.35524 4.97598 6.64921C4.7665 6.1523 4.58723 5.66368 4.44084 5.19184C4.92137 5.08434 5.43381 4.99645 5.96775 4.92974C5.78903 5.20849 5.61688 5.49139 5.45144 5.77822V5.77829ZM5.98308 10.0778C5.43144 10.0162 4.91131 9.93283 4.43091 9.82822C4.57959 9.34796 4.76282 8.84895 4.97683 8.34138C5.12912 8.63557 5.28831 8.92613 5.45427 9.21283C5.62492 9.50757 5.80163 9.79625 5.98308 10.0778ZM8.45295 12.1192C8.1119 11.7513 7.77177 11.3443 7.4396 10.9065C7.7621 10.9191 8.09084 10.9256 8.42499 10.9256C8.76828 10.9256 9.10762 10.9179 9.44163 10.903C9.11367 11.3487 8.78256 11.7563 8.45295 12.1192ZM11.887 8.31546C12.1122 8.82862 12.3019 9.325 12.4526 9.79704C11.9643 9.90849 11.437 9.99822 10.8815 10.0649C11.0595 9.78267 11.2319 9.49695 11.3985 9.2079C11.568 8.91408 11.7308 8.61653 11.887 8.31546V8.31546ZM10.7753 8.84842C10.5202 9.2916 10.2507 9.72637 9.96736 10.152C9.45404 10.1884 8.93959 10.2065 8.42499 10.2062C7.90084 10.2062 7.39104 10.1899 6.90012 10.158C6.60935 9.73334 6.33474 9.29781 6.0769 8.85237H6.07696C5.82033 8.40928 5.58062 7.95661 5.35834 7.49533C5.58005 7.03394 5.81904 6.58105 6.07479 6.13763L6.07473 6.1377C6.33038 5.69416 6.6028 5.26049 6.89137 4.83763C7.39223 4.79974 7.90584 4.78 8.42492 4.78H8.42499C8.94644 4.78 9.46071 4.79993 9.96144 4.83809C10.2471 5.26032 10.5178 5.6925 10.773 6.13382C11.0296 6.57626 11.2717 7.02694 11.499 7.48513C11.274 7.94801 11.0327 8.40273 10.7753 8.84842V8.84842ZM12.2595 0.813947C12.8235 1.13921 13.0428 2.45086 12.6885 4.17092C12.6658 4.28066 12.6405 4.39243 12.6128 4.50579C11.914 4.34447 11.1553 4.22454 10.3608 4.15C9.89808 3.49099 9.41854 2.89184 8.93716 2.37316C9.06332 2.25155 9.19248 2.13309 9.32453 2.01789C10.568 0.935855 11.7301 0.508618 12.2595 0.813947V0.813947ZM8.42499 5.97421C9.25558 5.97421 9.92894 6.64757 9.92894 7.47816C9.92894 8.30875 9.25558 8.98211 8.42499 8.98211C7.5944 8.98211 6.92104 8.30875 6.92104 7.47816C6.92104 6.64757 7.5944 5.97421 8.42499 5.97421V5.97421Z" fill="#00D8FF"/>
</g>
<defs>
<clipPath id="clip0">
<rect width="16.85" height="15" fill="white"/>
</clipPath>
</defs>
</svg>
