<svg width="22" height="22" viewBox="0 0 22 22" fill="none" xmlns="http://www.w3.org/2000/svg">
<path d="M21.9688 10.9728C21.9688 17.0326 17.0562 21.9453 10.996 21.9453C4.93573 21.9453 0.0231934 17.0326 0.0231934 10.9728C0.0231934 4.91262 4.9359 0 10.996 0C17.0563 0 21.9688 4.91262 21.9688 10.9728Z" fill="#E95420"/>
<path d="M3.53481 9.50752C2.72537 9.50752 2.06958 10.1633 2.06958 10.9728C2.06958 11.7818 2.72537 12.4376 3.53481 12.4376C4.34392 12.4376 4.99971 11.7818 4.99971 10.9728C4.99971 10.1633 4.34392 9.50752 3.53481 9.50752ZM13.9947 16.1658C13.2941 16.5706 13.0537 17.466 13.4584 18.1663C13.8628 18.8671 14.7583 19.1073 15.459 18.7026C16.1596 18.2982 16.3999 17.4028 15.9952 16.702C15.5909 16.0017 14.6949 15.7615 13.9947 16.1658ZM6.71699 10.9728C6.71699 9.52505 7.43612 8.24596 8.53638 7.47149L7.46534 5.67763C6.18367 6.53443 5.22993 7.8436 4.83359 9.37698C5.2961 9.75425 5.59207 10.3287 5.59207 10.9727C5.59207 11.6163 5.2961 12.1907 4.83359 12.5681C5.22942 14.1018 6.18315 15.4112 7.46534 16.268L8.53638 14.4736C7.43612 13.6996 6.71699 12.4205 6.71699 10.9728V10.9728ZM10.996 6.69333C13.2315 6.69333 15.0656 8.40726 15.2581 10.5932L17.3455 10.5624C17.2429 8.94867 16.5378 7.49994 15.4547 6.43465C14.8976 6.64511 14.2541 6.61289 13.6981 6.29234C13.141 5.97085 12.7917 5.4285 12.6962 4.83983C12.1424 4.68658 11.5705 4.60882 10.9959 4.60865C10.0176 4.60765 9.05226 4.83305 8.17553 5.26719L9.19345 7.09139C9.75801 6.82862 10.3733 6.69274 10.996 6.69333V6.69333ZM10.996 15.2518C10.3733 15.2524 9.75807 15.1165 9.19354 14.8538L8.17561 16.6778C9.05224 17.1124 10.0176 17.3381 10.9961 17.337C11.5707 17.3369 12.1426 17.2589 12.6963 17.1053C12.7917 16.5166 13.1412 15.9747 13.6981 15.6527C14.2547 15.3316 14.8977 15.3 15.4547 15.5104C16.5379 14.4451 17.2429 12.9964 17.3457 11.3827L15.2576 11.3519C15.0656 13.5384 13.2316 15.2518 10.996 15.2518V15.2518ZM13.9942 5.77886C14.6949 6.18346 15.5905 5.94386 15.9947 5.24313C16.3995 4.5424 16.1597 3.64684 15.459 3.24208C14.7583 2.83783 13.8628 3.07794 13.4579 3.77867C13.0538 4.47906 13.294 5.37453 13.9942 5.77886Z" fill="white"/>
</svg>
